<svg width="103" height="117" viewBox="0 0 103 117" fill="none" xmlns="http://www.w3.org/2000/svg">
<path fill-rule="evenodd" clip-rule="evenodd" d="M20.0941 15.1973L83.0059 15.1973C88.3662 15.1973 90.2585 22.3001 85.6086 24.967L77.649 29.5321C74.1401 31.5445 72.927 36.0204 74.9395 39.5292C76.9519 43.0381 81.4278 44.2512 84.9367 42.2388L92.8963 37.6737C110.566 27.5397 103.375 0.549135 83.0059 0.549135L20.0941 0.549133C9.11482 0.549133 0.214386 9.4496 0.214386 20.4288V107.204C0.214386 116.663 12.3727 120.526 17.8315 112.8L27.9889 98.4255C38.52 83.5218 54.5907 73.4669 72.5992 70.5142C87.0291 68.1483 85.297 46.8782 70.6743 46.8782H33.4954C29.4505 46.8782 26.1713 50.1573 26.1713 54.2023C26.1713 58.2473 29.4505 61.5264 33.4954 61.5264H51.3313C37.2619 67.488 24.9916 77.2839 16.0259 89.9723L14.8626 91.6186V20.4288C14.8626 17.5396 17.2048 15.1973 20.0941 15.1973Z" fill="white"/>
</svg>
