<svg xmlns="http://www.w3.org/2000/svg" version="1.1" xmlns:xlink="http://www.w3.org/1999/xlink" xmlns:svgjs="http://svgjs.dev/svgjs" width="103" height="118"><svg width="103" height="118" viewBox="0 0 103 118" fill="none" xmlns="http://www.w3.org/2000/svg">
<path fill-rule="evenodd" clip-rule="evenodd" d="M20.0941 15.4699L83.0059 15.4699C88.3662 15.4699 90.2585 22.5727 85.6086 25.2395L77.649 29.8046C74.1401 31.8171 72.927 36.293 74.9395 39.8018C76.9519 43.3107 81.4278 44.5238 84.9367 42.5113L92.8963 37.9462C110.566 27.8123 103.375 0.821718 83.0059 0.821718L20.0941 0.821716C9.11482 0.821716 0.214386 9.72218 0.214386 20.7014V107.477C0.214386 116.936 12.3727 120.798 17.8315 113.073L27.9889 98.6981C38.52 83.7944 54.5907 73.7394 72.5992 70.7868C87.0291 68.4209 85.297 47.1508 70.6743 47.1508H33.4954C29.4505 47.1508 26.1713 50.4299 26.1713 54.4749C26.1713 58.5199 29.4505 61.799 33.4954 61.799H51.3313C37.2619 67.7605 24.9916 77.5565 16.0259 90.2449L14.8626 91.8912V20.7014C14.8626 17.8121 17.2048 15.4699 20.0941 15.4699Z" fill="#EF523E"></path>
</svg><style>@media (prefers-color-scheme: light) { :root { filter: none; } }
@media (prefers-color-scheme: dark) { :root { filter: none; } }
</style></svg>