<svg width="67" height="67" viewBox="0 0 67 67" fill="none" xmlns="http://www.w3.org/2000/svg">
<path d="M28.5 3.59808C31.2846 1.99038 34.7154 1.99038 37.5 3.59808L56.6458 14.6519C59.4304 16.2596 61.1458 19.2308 61.1458 22.4462V44.5538C61.1458 47.7692 59.4304 50.7404 56.6458 52.3481L37.5 63.4019C34.7154 65.0096 31.2846 65.0096 28.5 63.4019L9.35417 52.3481C6.56956 50.7404 4.85417 47.7692 4.85417 44.5538V22.4462C4.85417 19.2308 6.56956 16.2596 9.35417 14.6519L28.5 3.59808Z" fill="#ED513C"/>
<line x1="40.25" y1="27.5784" x2="27.8284" y2="40" stroke="white" stroke-width="4" stroke-linecap="round" stroke-linejoin="round"/>
<line x1="2" y1="-2" x2="19.5668" y2="-2" transform="matrix(0.707107 0.707107 0.707107 -0.707107 26.3147 24.75)" stroke="white" stroke-width="4" stroke-linecap="round" stroke-linejoin="round"/>
</svg>
